<?xml version="1.0" standalone="no"?>
<!DOCTYPE svg PUBLIC "-//W3C//DTD SVG 1.1//EN" "http://www.w3.org/Graphics/SVG/1.1/DTD/svg11.dtd" >
<svg xmlns="http://www.w3.org/2000/svg">
<metadata></metadata>
<defs>
<font id="kaiju_monster__gregular" horiz-adv-x="1024" >
<font-face units-per-em="2048" ascent="1760" descent="-288" />
<missing-glyph horiz-adv-x="342" />
<glyph horiz-adv-x="2048" />
<glyph horiz-adv-x="2048" />
<glyph unicode="&#xd;" horiz-adv-x="2048" />
<glyph unicode=" "  horiz-adv-x="342" />
<glyph unicode="&#x09;" horiz-adv-x="342" />
<glyph unicode="&#xa0;" horiz-adv-x="342" />
<glyph unicode="!" horiz-adv-x="744" d="M84 1464l108 192l362 12l106 -244l-140 -976l-308 20zM164 168l32 168l344 -24l-24 -304l-296 -8z" />
<glyph unicode="&#x22;" />
<glyph unicode="#" />
<glyph unicode="$" />
<glyph unicode="%" />
<glyph unicode="&#x26;" />
<glyph unicode="'" horiz-adv-x="298" d="M16 1336l24 144l-8 270l246 -14l-6 -336z" />
<glyph unicode="(" horiz-adv-x="552" d="M76 318v1056l96 250l200 132l160 -208l-154 -220v-964l154 -220l-160 -208l-200 132z" />
<glyph unicode=")" horiz-adv-x="552" d="M20 144l154 220v964l-154 220l160 208l200 -132l96 -250v-1056l-96 -250l-200 -132z" />
<glyph unicode="*" />
<glyph unicode="+" />
<glyph unicode="," horiz-adv-x="470" d="M44 -68l24 164l-8 252l350 4l-20 -352z" />
<glyph unicode="-" horiz-adv-x="700" d="M64 960l556 16l16 -296l-564 -24z" />
<glyph unicode="." horiz-adv-x="514" d="M64 180l52 198l334 -18l-20 -352l-308 -8z" />
<glyph unicode="/" horiz-adv-x="708" d="M4 12l342 1694l358 -68l-408 -1710z" />
<glyph unicode="0" horiz-adv-x="868" d="M36 1336l158 278l506 58l132 -374l-72 -1252l-382 -72l-290 112zM312 1112l16 -784l120 -72l80 106l40 746l-138 72z" />
<glyph unicode="1" horiz-adv-x="716" d="M40 1636l494 46l-20 -1360l150 -6l12 -292l-586 -30l-14 282l200 26l-20 880l-190 -26z" />
<glyph unicode="2" horiz-adv-x="824" d="M40 10l46 816l362 198l24 132l-118 12l-48 -120l-264 80l104 542l566 -8l72 -460l-98 -388l-356 -192l-26 -276l138 -20l32 216l284 -72l-72 -488z" />
<glyph unicode="3" horiz-adv-x="836" d="M40 480l258 86l50 -158l114 26l-98 298l-198 -20l-26 230l230 -12l116 212l-104 20l-74 -114l-264 112l114 520l566 -8l72 -500l-190 -374l166 -338l-72 -460l-568 -8z" />
<glyph unicode="4" horiz-adv-x="880" d="M40 478l12 736l264 468l442 -52l-8 -968h90l-6 -224h-84v-456l-290 8v462zM282 676l186 -8l-2 482l-26 14l-146 -172z" />
<glyph unicode="5" horiz-adv-x="824" d="M40 40l26 356l402 -46v302l-66 72h-230l-100 118l14 798l678 46l20 -488l-408 -52l-6 -146l230 14l152 -184l12 -716l-224 -140z" />
<glyph unicode="6" horiz-adv-x="862" d="M40 146l32 1446l342 98l408 -98l-48 -572l-276 26l6 106l-138 12l-2 -248l394 12l40 -848l-460 -106zM350 442l154 -34v258l-148 -14z" />
<glyph unicode="7" horiz-adv-x="810" d="M40 1112l92 562l566 -8l72 -542l-202 -804l10 -320l-328 6l14 334l198 810l-112 14l-54 -124z" />
<glyph unicode="8" horiz-adv-x="850" d="M40 766l144 60l-144 264l112 558l560 38l98 -624l-144 -236l144 -60l-60 -756l-408 -28l-256 100zM296 608l26 -244l120 -52l78 26l40 278l-132 58zM316 1030l66 -132l86 14l66 150l-60 106l-118 -26z" />
<glyph unicode="9" horiz-adv-x="862" d="M40 72l32 428l276 -26l-6 -146l138 -12l24 404l-400 -56l-40 920l460 106l298 -172l-32 -1446l-342 -98zM352 936l154 28l6 186l-154 34z" />
<glyph unicode=":" horiz-adv-x="506" d="M60 452l52 198l334 -18l-20 -352l-308 -8zM100 1084l8 270l334 -18l-6 -336l-300 -40z" />
<glyph unicode=";" horiz-adv-x="466" d="M40 212l24 164v252l342 4l-20 -352zM60 1084l8 270l334 -18l-6 -336l-300 -40z" />
<glyph unicode="&#x3c;" />
<glyph unicode="=" />
<glyph unicode="&#x3e;" />
<glyph unicode="?" horiz-adv-x="926" d="M84 1120l120 542l566 -8l72 -460l-98 -388l-188 -144l6 -230l-256 24l6 410l194 150l24 132l-118 12l-64 -120zM238 168l32 168l344 -24l-24 -304l-296 -8z" />
<glyph unicode="@" horiz-adv-x="1476" d="M60 786q28 -50 75 -98t114 -103t159 -89q16 44 -11 87t-74 71t-103 48q92 -6 135 -18t86 -36t77 -60t51 -77t26 -88t60 -92t110 -64t111 -17t93 24t64 65t11 94t-62 104t-250 200t-298 231t-140 161t-52 141t5 109t48 77t102 46t141 6t173 -49t189 -110t147 -129 t145 -182l-360 14l24 62q-44 38 -94 70t-102 47t-103 14t-69 -44t18 -98t102 -104t192 -140t249 -186t165 -157t53 -114t-3 -99t-58 -91t-110 -67t-147 -29t-149 0q-120 14 -253 91t-214 153t-130 135t-92 137t-51 154zM112 380q28 -56 88 -102t180 -102t228 -88t228 -36 q170 4 275 -21t176 -68t129 -115q-172 68 -254 89t-153 18t-136 -22t-101 -35q-100 44 -201 84t-196 94t-156 102t-84 101t-23 101z" />
<glyph unicode="A" horiz-adv-x="836" d="M20 -4l124 1416l136 220l326 44l210 -1674l-290 40l-32 468l-164 -26l-26 -468zM342 720l132 14l-32 428l-74 -14z" />
<glyph unicode="B" horiz-adv-x="832" d="M40 1356l80 282l566 34l106 -560l-146 -262l146 -58l-60 -758l-646 -32zM330 904l120 20l64 148l-46 106l-138 -28v-246zM344 696l12 -366l146 20l40 300l-146 60z" />
<glyph unicode="C" horiz-adv-x="818" d="M40 322l34 1276l500 80l198 -126l-20 -598l-270 12l-20 212l-132 -20l-20 -790l72 -104l120 30l-14 238l270 26l20 -520l-606 -52z" />
<glyph unicode="D" horiz-adv-x="810" d="M40 1630l526 46l172 -336l32 -1058l-262 -276l-462 -14zM316 1144l14 -822l124 20l76 98l-38 632l-64 84z" />
<glyph unicode="E" horiz-adv-x="804" d="M40 118l22 1514l676 42l20 -464l-410 -52l-6 -238l376 20l-20 -284l-356 -20l-6 -282l402 46l26 -354l-554 -66z" />
<glyph unicode="F" horiz-adv-x="864" d="M40 -14l32 1448l14 146l242 100l512 -80l-110 -514l-348 104l-72 -38l26 -304l342 26l-32 -316l-290 40l32 -586z" />
<glyph unicode="G" horiz-adv-x="870" d="M40 184l40 1384l342 108l408 -100l-46 -592l-276 36l6 128l-138 14l-16 -722l168 -22v150l-98 20l14 270l316 -26l44 -850l-264 -26v80l-348 -52z" />
<glyph unicode="H" horiz-adv-x="890" d="M40 1656l362 12l-12 -706l132 8l-14 698l342 -12l-12 -1678l-304 14l-12 694l-132 -12l-14 -682l-308 20z" />
<glyph unicode="I" horiz-adv-x="450" d="M44 1656l362 12l-26 -1676l-308 20z" />
<glyph unicode="J" horiz-adv-x="830" d="M40 800l302 26v-506l186 46l-14 804l-190 -28l-36 490l502 38l-20 -1666l-230 -40l-4 88l-276 -88l-206 132z" />
<glyph unicode="K" horiz-adv-x="864" d="M40 1634l262 40l20 -690l120 52l112 632l270 -20l-126 -776l-70 -26l196 -824l-270 -26l-164 772l-54 -22l20 -724l-304 -40z" />
<glyph unicode="L" horiz-adv-x="780" d="M40 1546l112 118l244 -34l-42 -1232l390 38l-14 -408l-506 -46l-172 144z" />
<glyph unicode="M" horiz-adv-x="1216" d="M32 -12l58 1652l330 26l178 -786l198 786l328 -26l60 -1652l-350 12l20 834l-144 -636l-192 -40l-158 704l20 -862z" />
<glyph unicode="N" horiz-adv-x="804" d="M40 1646l296 12l176 -754l-52 768l304 -26l-68 -1672l-244 14l-124 686l-14 -692l-256 20z" />
<glyph unicode="O" horiz-adv-x="868" d="M36 1336l158 278l506 58l132 -374l-72 -1252l-382 -72l-290 112zM312 1112l16 -784l120 -72l80 106l40 746l-138 72z" />
<glyph unicode="P" horiz-adv-x="826" d="M36 1352l78 282l566 34l106 -566l-144 -594l-278 -54l14 -444l-296 -26zM326 1180l20 -488l112 26l58 370l-58 106z" />
<glyph unicode="Q" horiz-adv-x="866" d="M36 150l46 1434l336 94l408 -100l-32 -1468l-114 -38l60 -172l-242 -20l-18 152l-240 -48zM326 452l86 -6l-34 184h-46zM340 794l142 -18l54 -166l-6 542l-178 12z" />
<glyph unicode="R" horiz-adv-x="830" d="M40 1362l78 282l566 34l106 -586l-144 -238l144 -58l-58 -764l-252 -12l60 590l-184 78l26 -676l-296 -26zM330 1150l12 -236l106 26l72 152l-58 84z" />
<glyph unicode="S" horiz-adv-x="824" d="M40 1202l72 460l566 8l104 -542l-264 -80l-48 120l-118 -12l24 -132l362 -198l46 -816l-646 -28l-72 488l284 72l32 -216l138 20l-26 276l-356 192z" />
<glyph unicode="T" horiz-adv-x="902" d="M36 1610l810 58l20 -444l-224 -20l-14 -1214l-302 20l-34 1168l-224 -20z" />
<glyph unicode="U" horiz-adv-x="842" d="M40 1646l322 26l26 -1344l132 66l-6 1278h288l-18 -1660l-198 -32l-26 118l-290 -124l-204 124z" />
<glyph unicode="V" horiz-adv-x="836" d="M36 1648l316 26l80 -1302l86 1302h282l-78 -1580l-388 -124l-186 124z" />
<glyph unicode="W" horiz-adv-x="1284" d="M36 1652l316 26l34 -1314l104 26l14 1268l310 14l-28 -1276l118 -44l28 1334l316 -28l-66 -1550l-366 -124l-188 130l-342 -132l-184 126z" />
<glyph unicode="X" horiz-adv-x="896" d="M40 -22l6 412l250 454l-250 432l-6 382l362 12l-6 -388l56 -194l50 188l-8 400l362 -12l-6 -370l-250 -462l252 -376l4 -448l-362 -14l8 390l-50 160l-56 -154l6 -354z" />
<glyph unicode="Y" horiz-adv-x="890" d="M40 1662l362 14l-8 -634l70 -122l50 62l-8 694l344 -14v-672l-224 -388l12 -618l-308 14v576l-284 488z" />
<glyph unicode="Z" horiz-adv-x="832" d="M40 14l14 334l206 422l-122 70l96 152l124 -52l126 218l-112 14l-74 -124l-236 98l92 528l566 -8l72 -534l-190 -324l98 -58l-104 -152l-106 46l-146 -302l104 -12l60 210l250 -66l-72 -488z" />
<glyph unicode="[" />
<glyph unicode="\" />
<glyph unicode="]" />
<glyph unicode="^" />
<glyph unicode="_" horiz-adv-x="672" d="M52 248l552 16l16 -252l-560 -24z" />
<glyph unicode="`" />
<glyph unicode="a" horiz-adv-x="836" d="M20 -4l124 1416l136 220l326 44l210 -1674l-290 40l-32 468l-164 -26l-26 -468zM342 720l132 14l-32 428l-74 -14z" />
<glyph unicode="b" horiz-adv-x="832" d="M40 1356l80 282l566 34l106 -560l-146 -262l146 -58l-60 -758l-646 -32zM330 904l120 20l64 148l-46 106l-138 -28v-246zM344 696l12 -366l146 20l40 300l-146 60z" />
<glyph unicode="c" horiz-adv-x="818" d="M40 322l34 1276l500 80l198 -126l-20 -598l-270 12l-20 212l-132 -20l-20 -790l72 -104l120 30l-14 238l270 26l20 -520l-606 -52z" />
<glyph unicode="d" horiz-adv-x="810" d="M40 1630l526 46l172 -336l32 -1058l-262 -276l-462 -14zM316 1144l14 -822l124 20l76 98l-38 632l-64 84z" />
<glyph unicode="e" horiz-adv-x="804" d="M40 118l22 1514l676 42l20 -464l-410 -52l-6 -238l376 20l-20 -284l-356 -20l-6 -282l402 46l26 -354l-554 -66z" />
<glyph unicode="f" horiz-adv-x="864" d="M40 -14l32 1448l14 146l242 100l512 -80l-110 -514l-348 104l-72 -38l26 -304l342 26l-32 -316l-290 40l32 -586z" />
<glyph unicode="g" horiz-adv-x="870" d="M40 184l40 1384l342 108l408 -100l-46 -592l-276 36l6 128l-138 14l-16 -722l168 -22v150l-98 20l14 270l316 -26l44 -850l-264 -26v80l-348 -52z" />
<glyph unicode="h" horiz-adv-x="890" d="M40 1656l362 12l-12 -706l132 8l-14 698l342 -12l-12 -1678l-304 14l-12 694l-132 -12l-14 -682l-308 20z" />
<glyph unicode="i" horiz-adv-x="450" d="M44 1656l362 12l-26 -1676l-308 20z" />
<glyph unicode="j" horiz-adv-x="830" d="M40 800l302 26v-506l186 46l-14 804l-190 -28l-36 490l502 38l-20 -1666l-230 -40l-4 88l-276 -88l-206 132z" />
<glyph unicode="k" horiz-adv-x="864" d="M40 1634l262 40l20 -690l120 52l112 632l270 -20l-126 -776l-70 -26l196 -824l-270 -26l-164 772l-54 -22l20 -724l-304 -40z" />
<glyph unicode="l" horiz-adv-x="780" d="M40 1546l112 118l244 -34l-42 -1232l390 38l-14 -408l-506 -46l-172 144z" />
<glyph unicode="m" horiz-adv-x="1252" d="M36 1620l264 34l14 -132l124 138h126l118 -204l100 198l308 26l126 -436l-66 -1246l-258 14l34 1174l-92 -14l-54 -100l20 -1052l-288 -32l-34 1180l-132 -112l54 -1050l-318 -32z" />
<glyph unicode="n" horiz-adv-x="804" d="M40 1646l296 12l176 -754l-52 768l304 -26l-68 -1672l-244 14l-124 686l-14 -692l-256 20z" />
<glyph unicode="o" horiz-adv-x="868" d="M36 1336l158 278l506 58l132 -374l-72 -1252l-382 -72l-290 112zM312 1112l16 -784l120 -72l80 106l40 746l-138 72z" />
<glyph unicode="p" horiz-adv-x="826" d="M36 1352l78 282l566 34l106 -566l-144 -594l-278 -54l14 -444l-296 -26zM326 1180l20 -488l112 26l58 370l-58 106z" />
<glyph unicode="q" horiz-adv-x="866" d="M36 150l46 1434l336 94l408 -100l-32 -1468l-114 -38l60 -172l-242 -20l-18 152l-240 -48zM326 452l86 -6l-34 184h-46zM340 794l142 -18l54 -166l-6 542l-178 12z" />
<glyph unicode="r" horiz-adv-x="830" d="M40 1362l78 282l566 34l106 -586l-144 -238l144 -58l-58 -764l-252 -12l60 590l-184 78l26 -676l-296 -26zM330 1150l12 -236l106 26l72 152l-58 84z" />
<glyph unicode="s" horiz-adv-x="824" d="M40 1202l72 460l566 8l104 -542l-264 -80l-48 120l-118 -12l24 -132l362 -198l46 -816l-646 -28l-72 488l284 72l32 -216l138 20l-26 276l-356 192z" />
<glyph unicode="t" horiz-adv-x="902" d="M36 1610l810 58l20 -444l-224 -20l-14 -1214l-302 20l-34 1168l-224 -20z" />
<glyph unicode="u" horiz-adv-x="842" d="M40 1646l322 26l26 -1344l132 66l-6 1278h288l-18 -1660l-198 -32l-26 118l-290 -124l-204 124z" />
<glyph unicode="v" horiz-adv-x="836" d="M36 1648l316 26l80 -1302l86 1302h282l-78 -1580l-388 -124l-186 124z" />
<glyph unicode="w" horiz-adv-x="1284" d="M36 1652l316 26l34 -1314l104 26l14 1268l310 14l-28 -1276l118 -44l28 1334l316 -28l-66 -1550l-366 -124l-188 130l-342 -132l-184 126z" />
<glyph unicode="x" horiz-adv-x="896" d="M40 -22l6 412l250 454l-250 432l-6 382l362 12l-6 -388l56 -194l50 188l-8 400l362 -12l-6 -370l-250 -462l252 -376l4 -448l-362 -14l8 390l-50 160l-56 -154l6 -354z" />
<glyph unicode="y" horiz-adv-x="890" d="M40 1662l362 14l-8 -634l70 -122l50 62l-8 694l344 -14v-672l-224 -388l12 -618l-308 14v576l-284 488z" />
<glyph unicode="z" horiz-adv-x="832" d="M40 14l14 334l206 422l-122 70l96 152l124 -52l126 258l-112 14l-74 -124l-236 98l92 488l566 -8l72 -494l-190 -364l98 -58l-104 -152l-106 46l-146 -302l104 -12l60 210l250 -66l-72 -488z" />
<glyph unicode="{" />
<glyph unicode="|" />
<glyph unicode="}" />
<glyph unicode="~" />
<glyph unicode="&#xa0;" />
<glyph unicode="&#xa1;" />
<glyph unicode="&#xa2;" />
<glyph unicode="&#xa3;" />
<glyph unicode="&#xa4;" />
<glyph unicode="&#xa5;" />
<glyph unicode="&#xa6;" />
<glyph unicode="&#xa7;" />
<glyph unicode="&#xa8;" />
<glyph unicode="&#xa9;" />
<glyph unicode="&#xaa;" />
<glyph unicode="&#xab;" />
<glyph unicode="&#xac;" />
<glyph unicode="&#xad;" />
<glyph unicode="&#xae;" />
<glyph unicode="&#xaf;" />
<glyph unicode="&#xb0;" />
<glyph unicode="&#xb1;" />
<glyph unicode="&#xb2;" />
<glyph unicode="&#xb3;" />
<glyph unicode="&#xb4;" />
<glyph unicode="&#xb5;" />
<glyph unicode="&#xb6;" />
<glyph unicode="&#xb7;" />
<glyph unicode="&#xb8;" />
<glyph unicode="&#xb9;" />
<glyph unicode="&#xba;" />
<glyph unicode="&#xbb;" />
<glyph unicode="&#xbc;" />
<glyph unicode="&#xbd;" />
<glyph unicode="&#xbe;" />
<glyph unicode="&#xbf;" />
<glyph unicode="&#xc0;" />
<glyph unicode="&#xc1;" />
<glyph unicode="&#xc2;" />
<glyph unicode="&#xc3;" />
<glyph unicode="&#xc4;" />
<glyph unicode="&#xc5;" />
<glyph unicode="&#xc6;" />
<glyph unicode="&#xc7;" />
<glyph unicode="&#xc8;" />
<glyph unicode="&#xc9;" />
<glyph unicode="&#xca;" />
<glyph unicode="&#xcb;" />
<glyph unicode="&#xcc;" />
<glyph unicode="&#xcd;" />
<glyph unicode="&#xce;" />
<glyph unicode="&#xcf;" />
<glyph unicode="&#xd0;" />
<glyph unicode="&#xd1;" />
<glyph unicode="&#xd2;" />
<glyph unicode="&#xd3;" />
<glyph unicode="&#xd4;" />
<glyph unicode="&#xd5;" />
<glyph unicode="&#xd6;" />
<glyph unicode="&#xd7;" />
<glyph unicode="&#xd8;" />
<glyph unicode="&#xd9;" />
<glyph unicode="&#xda;" />
<glyph unicode="&#xdb;" />
<glyph unicode="&#xdc;" />
<glyph unicode="&#xdd;" />
<glyph unicode="&#xde;" />
<glyph unicode="&#xdf;" />
<glyph unicode="&#xe0;" />
<glyph unicode="&#xe1;" />
<glyph unicode="&#xe2;" />
<glyph unicode="&#xe3;" />
<glyph unicode="&#xe4;" />
<glyph unicode="&#xe5;" />
<glyph unicode="&#xe6;" />
<glyph unicode="&#xe7;" />
<glyph unicode="&#xe8;" />
<glyph unicode="&#xe9;" />
<glyph unicode="&#xea;" />
<glyph unicode="&#xeb;" />
<glyph unicode="&#xec;" />
<glyph unicode="&#xed;" />
<glyph unicode="&#xee;" />
<glyph unicode="&#xef;" />
<glyph unicode="&#xf0;" />
<glyph unicode="&#xf1;" />
<glyph unicode="&#xf2;" />
<glyph unicode="&#xf3;" />
<glyph unicode="&#xf4;" />
<glyph unicode="&#xf5;" />
<glyph unicode="&#xf6;" />
<glyph unicode="&#xf7;" />
<glyph unicode="&#xf8;" />
<glyph unicode="&#xf9;" />
<glyph unicode="&#xfa;" />
<glyph unicode="&#xfb;" />
<glyph unicode="&#xfc;" />
<glyph unicode="&#xfd;" />
<glyph unicode="&#xfe;" />
<glyph unicode="&#xff;" />
<glyph unicode="&#x152;" />
<glyph unicode="&#x153;" />
<glyph unicode="&#x178;" />
<glyph unicode="&#x2c6;" />
<glyph unicode="&#x2dc;" />
<glyph unicode="&#x2000;" horiz-adv-x="878" />
<glyph unicode="&#x2001;" horiz-adv-x="1756" />
<glyph unicode="&#x2002;" horiz-adv-x="878" />
<glyph unicode="&#x2003;" horiz-adv-x="1756" />
<glyph unicode="&#x2004;" horiz-adv-x="585" />
<glyph unicode="&#x2005;" horiz-adv-x="439" />
<glyph unicode="&#x2006;" horiz-adv-x="292" />
<glyph unicode="&#x2007;" horiz-adv-x="292" />
<glyph unicode="&#x2008;" horiz-adv-x="219" />
<glyph unicode="&#x2009;" horiz-adv-x="351" />
<glyph unicode="&#x200a;" horiz-adv-x="97" />
<glyph unicode="&#x2010;" horiz-adv-x="700" d="M64 960l556 16l16 -296l-564 -24z" />
<glyph unicode="&#x2011;" horiz-adv-x="700" d="M64 960l556 16l16 -296l-564 -24z" />
<glyph unicode="&#x2012;" horiz-adv-x="700" d="M64 960l556 16l16 -296l-564 -24z" />
<glyph unicode="&#x2013;" />
<glyph unicode="&#x2014;" />
<glyph unicode="&#x2018;" />
<glyph unicode="&#x2019;" />
<glyph unicode="&#x201a;" />
<glyph unicode="&#x201c;" />
<glyph unicode="&#x201d;" />
<glyph unicode="&#x201e;" />
<glyph unicode="&#x2022;" />
<glyph unicode="&#x2026;" />
<glyph unicode="&#x202f;" horiz-adv-x="351" />
<glyph unicode="&#x2039;" />
<glyph unicode="&#x203a;" />
<glyph unicode="&#x205f;" horiz-adv-x="439" />
<glyph unicode="&#x20ac;" />
<glyph unicode="&#x2122;" />
<glyph unicode="&#xe000;" horiz-adv-x="1680" d="M0 0v1680h1680v-1680h-1680z" />
</font>
</defs>
</svg>
